<mxfile host="app.diagrams.net" modified="2023-11-10T16:58:57.040Z" agent="Mozilla/5.0 (Macintosh; Intel Mac OS X 10_15_7) AppleWebKit/605.1.15 (KHTML, like Gecko) Version/17.0 Safari/605.1.15" etag="dlZLk29J8g9CwXAuRbSh" version="22.1.0" type="device">
  <diagram name="Page-1" id="2YBvvXClWsGukQMizWep">
    <mxGraphModel dx="2872" dy="1354" grid="1" gridSize="10" guides="1" tooltips="1" connect="1" arrows="1" fold="1" page="1" pageScale="1" pageWidth="850" pageHeight="1100" math="0" shadow="0">
      <root>
        <mxCell id="0" />
        <mxCell id="1" parent="0" />
        <mxCell id="cTSy6u-QbdNvS9XZRoj6-211" value="" style="rounded=1;whiteSpace=wrap;html=1;absoluteArcSize=1;arcSize=0;strokeWidth=2;fillColor=none;" vertex="1" parent="1">
          <mxGeometry x="592" y="120" width="750" height="1230" as="geometry" />
        </mxCell>
        <mxCell id="cTSy6u-QbdNvS9XZRoj6-202" value="" style="rounded=0;whiteSpace=wrap;html=1;rotation=-90;fillColor=#dae8fc;strokeColor=#6c8ebf;" vertex="1" parent="1">
          <mxGeometry x="1225.48" y="1170" width="47.03" height="10" as="geometry" />
        </mxCell>
        <mxCell id="cTSy6u-QbdNvS9XZRoj6-143" value="" style="rounded=0;whiteSpace=wrap;html=1;rotation=-90;fillColor=#dae8fc;strokeColor=#6c8ebf;" vertex="1" parent="1">
          <mxGeometry x="496.16999999999996" y="737.81" width="940.64" height="10" as="geometry" />
        </mxCell>
        <mxCell id="cTSy6u-QbdNvS9XZRoj6-182" value="" style="rounded=1;whiteSpace=wrap;html=1;absoluteArcSize=1;arcSize=0;strokeWidth=2;fillColor=none;" vertex="1" parent="1">
          <mxGeometry x="662" y="1020" width="610" height="260" as="geometry" />
        </mxCell>
        <mxCell id="cTSy6u-QbdNvS9XZRoj6-166" value="" style="rounded=1;whiteSpace=wrap;html=1;absoluteArcSize=1;arcSize=0;strokeWidth=2;fillColor=none;" vertex="1" parent="1">
          <mxGeometry x="642" y="610" width="650" height="700" as="geometry" />
        </mxCell>
        <mxCell id="cTSy6u-QbdNvS9XZRoj6-141" value="" style="rounded=0;whiteSpace=wrap;html=1;rotation=-90;fillColor=#dae8fc;strokeColor=#6c8ebf;" vertex="1" parent="1">
          <mxGeometry x="209.5" y="726.99" width="958.98" height="10" as="geometry" />
        </mxCell>
        <mxCell id="cTSy6u-QbdNvS9XZRoj6-94" value="" style="rounded=1;whiteSpace=wrap;html=1;absoluteArcSize=1;arcSize=0;strokeWidth=2;fillColor=none;" vertex="1" parent="1">
          <mxGeometry x="-388" y="1260" width="730" height="650" as="geometry" />
        </mxCell>
        <mxCell id="cTSy6u-QbdNvS9XZRoj6-181" value="" style="rounded=1;whiteSpace=wrap;html=1;absoluteArcSize=1;arcSize=0;strokeWidth=2;fillColor=none;" vertex="1" parent="1">
          <mxGeometry x="662" y="760" width="610" height="260" as="geometry" />
        </mxCell>
        <mxCell id="cTSy6u-QbdNvS9XZRoj6-138" value="" style="rounded=1;whiteSpace=wrap;html=1;absoluteArcSize=1;arcSize=0;strokeWidth=2;fillColor=none;" vertex="1" parent="1">
          <mxGeometry x="-468" y="120" width="890" height="2000" as="geometry" />
        </mxCell>
        <mxCell id="cTSy6u-QbdNvS9XZRoj6-16" value="" style="rounded=0;whiteSpace=wrap;html=1;rotation=-90;fillColor=#dae8fc;strokeColor=#6c8ebf;" vertex="1" parent="1">
          <mxGeometry x="-1210" y="1164.49" width="1813.98" height="10" as="geometry" />
        </mxCell>
        <mxCell id="cTSy6u-QbdNvS9XZRoj6-65" value="" style="rounded=1;whiteSpace=wrap;html=1;absoluteArcSize=1;arcSize=0;strokeWidth=2;fillColor=none;" vertex="1" parent="1">
          <mxGeometry x="-418" y="860" width="790" height="1090" as="geometry" />
        </mxCell>
        <mxCell id="cTSy6u-QbdNvS9XZRoj6-133" value="" style="rounded=0;whiteSpace=wrap;html=1;rotation=-90;fillColor=#dae8fc;strokeColor=#6c8ebf;" vertex="1" parent="1">
          <mxGeometry x="-54.24000000000001" y="2003.43" width="57.48" height="10" as="geometry" />
        </mxCell>
        <mxCell id="cTSy6u-QbdNvS9XZRoj6-118" value="" style="rounded=0;whiteSpace=wrap;html=1;rotation=-90;fillColor=#dae8fc;strokeColor=#6c8ebf;" vertex="1" parent="1">
          <mxGeometry x="-122.95999999999998" y="1741.66" width="194.93" height="10" as="geometry" />
        </mxCell>
        <mxCell id="cTSy6u-QbdNvS9XZRoj6-92" value="" style="rounded=0;whiteSpace=wrap;html=1;rotation=-90;fillColor=#dae8fc;strokeColor=#6c8ebf;" vertex="1" parent="1">
          <mxGeometry x="225.41999999999996" y="1216.18" width="61.68" height="10" as="geometry" />
        </mxCell>
        <mxCell id="cTSy6u-QbdNvS9XZRoj6-102" value="" style="rounded=0;whiteSpace=wrap;html=1;rotation=-90;fillColor=#dae8fc;strokeColor=#6c8ebf;" vertex="1" parent="1">
          <mxGeometry x="153.58000000000004" y="1371.58" width="204.84" height="10" as="geometry" />
        </mxCell>
        <mxCell id="cTSy6u-QbdNvS9XZRoj6-76" value="" style="rounded=0;whiteSpace=wrap;html=1;rotation=-90;fillColor=#dae8fc;strokeColor=#6c8ebf;" vertex="1" parent="1">
          <mxGeometry x="-332.68000000000006" y="1201.7" width="614.38" height="10" as="geometry" />
        </mxCell>
        <mxCell id="cTSy6u-QbdNvS9XZRoj6-74" value="" style="rounded=0;whiteSpace=wrap;html=1;rotation=-90;fillColor=#dae8fc;strokeColor=#6c8ebf;" vertex="1" parent="1">
          <mxGeometry x="-226.75" y="623.75" width="402.5" height="10" as="geometry" />
        </mxCell>
        <mxCell id="cTSy6u-QbdNvS9XZRoj6-129" value="" style="rounded=1;whiteSpace=wrap;html=1;absoluteArcSize=1;arcSize=0;strokeWidth=2;fillColor=none;" vertex="1" parent="1">
          <mxGeometry x="-418" y="1950" width="790" height="100" as="geometry" />
        </mxCell>
        <mxCell id="cTSy6u-QbdNvS9XZRoj6-120" value="" style="rounded=1;whiteSpace=wrap;html=1;absoluteArcSize=1;arcSize=0;strokeWidth=2;fillColor=none;" vertex="1" parent="1">
          <mxGeometry x="-326.28999999999996" y="1740" width="608.29" height="130" as="geometry" />
        </mxCell>
        <mxCell id="cTSy6u-QbdNvS9XZRoj6-132" value="" style="endArrow=none;dashed=1;html=1;strokeWidth=2;rounded=0;exitX=1;exitY=0.5;exitDx=0;exitDy=0;entryX=0;entryY=0.5;entryDx=0;entryDy=0;" edge="1" source="cTSy6u-QbdNvS9XZRoj6-133" parent="1" target="cTSy6u-QbdNvS9XZRoj6-118">
          <mxGeometry width="50" height="50" relative="1" as="geometry">
            <mxPoint x="-15.509999999999991" y="1933" as="sourcePoint" />
            <mxPoint x="-25" y="1880" as="targetPoint" />
          </mxGeometry>
        </mxCell>
        <mxCell id="cTSy6u-QbdNvS9XZRoj6-114" value="" style="rounded=1;whiteSpace=wrap;html=1;absoluteArcSize=1;arcSize=0;strokeWidth=2;fillColor=none;" vertex="1" parent="1">
          <mxGeometry x="-326.28999999999996" y="1630" width="608.29" height="110" as="geometry" />
        </mxCell>
        <mxCell id="cTSy6u-QbdNvS9XZRoj6-22" value="" style="rounded=1;whiteSpace=wrap;html=1;absoluteArcSize=1;arcSize=0;strokeWidth=2;fillColor=none;" vertex="1" parent="1">
          <mxGeometry x="-388" y="400" width="450" height="450" as="geometry" />
        </mxCell>
        <mxCell id="cTSy6u-QbdNvS9XZRoj6-1" value="Spieler" style="shape=umlActor;verticalLabelPosition=bottom;verticalAlign=top;html=1;outlineConnect=0;fillColor=#dae8fc;strokeColor=#6c8ebf;" vertex="1" parent="1">
          <mxGeometry x="-318" y="170" width="30" height="60" as="geometry" />
        </mxCell>
        <mxCell id="cTSy6u-QbdNvS9XZRoj6-3" value="Spieler" style="shape=umlActor;verticalLabelPosition=bottom;verticalAlign=top;html=1;outlineConnect=0;fillColor=#dae8fc;strokeColor=#6c8ebf;" vertex="1" parent="1">
          <mxGeometry x="242" y="170" width="30" height="60" as="geometry" />
        </mxCell>
        <mxCell id="cTSy6u-QbdNvS9XZRoj6-6" value="CLUEDO" style="rounded=0;whiteSpace=wrap;html=1;fillColor=#e1d5e7;strokeColor=#9673a6;" vertex="1" parent="1">
          <mxGeometry x="-83" y="170" width="120" height="60" as="geometry" />
        </mxCell>
        <mxCell id="cTSy6u-QbdNvS9XZRoj6-12" value="" style="rounded=0;whiteSpace=wrap;html=1;rotation=-90;fillColor=#dae8fc;strokeColor=#6c8ebf;" vertex="1" parent="1">
          <mxGeometry x="-73" y="325" width="95" height="10" as="geometry" />
        </mxCell>
        <mxCell id="cTSy6u-QbdNvS9XZRoj6-13" value="" style="endArrow=none;dashed=1;html=1;strokeWidth=2;rounded=0;exitX=1;exitY=0.5;exitDx=0;exitDy=0;" edge="1" source="cTSy6u-QbdNvS9XZRoj6-12" parent="1">
          <mxGeometry width="50" height="50" relative="1" as="geometry">
            <mxPoint x="-15.5" y="310" as="sourcePoint" />
            <mxPoint x="-25.5" y="260" as="targetPoint" />
          </mxGeometry>
        </mxCell>
        <mxCell id="cTSy6u-QbdNvS9XZRoj6-17" value="" style="endArrow=block;html=1;rounded=0;strokeWidth=2;endFill=1;" edge="1" parent="1">
          <mxGeometry width="50" height="50" relative="1" as="geometry">
            <mxPoint x="-298" y="310" as="sourcePoint" />
            <mxPoint x="-38" y="310" as="targetPoint" />
          </mxGeometry>
        </mxCell>
        <mxCell id="cTSy6u-QbdNvS9XZRoj6-18" value="1. wÃ¼rfeln" style="edgeLabel;html=1;align=center;verticalAlign=middle;resizable=0;points=[];" vertex="1" connectable="0" parent="cTSy6u-QbdNvS9XZRoj6-17">
          <mxGeometry x="-0.3582" y="-3" relative="1" as="geometry">
            <mxPoint x="44" y="-13" as="offset" />
          </mxGeometry>
        </mxCell>
        <mxCell id="cTSy6u-QbdNvS9XZRoj6-19" value="" style="endArrow=none;html=1;rounded=0;strokeWidth=2;endFill=0;dashed=1;startArrow=open;startFill=0;entryX=0.185;entryY=-0.009;entryDx=0;entryDy=0;entryPerimeter=0;" edge="1" parent="1" target="cTSy6u-QbdNvS9XZRoj6-12">
          <mxGeometry width="50" height="50" relative="1" as="geometry">
            <mxPoint x="-298" y="360" as="sourcePoint" />
            <mxPoint x="-38" y="360" as="targetPoint" />
          </mxGeometry>
        </mxCell>
        <mxCell id="cTSy6u-QbdNvS9XZRoj6-20" value="1.1 teile Ergebnis mit" style="edgeLabel;html=1;align=center;verticalAlign=middle;resizable=0;points=[];" vertex="1" connectable="0" parent="cTSy6u-QbdNvS9XZRoj6-19">
          <mxGeometry x="-0.3582" y="-3" relative="1" as="geometry">
            <mxPoint x="44" y="-14" as="offset" />
          </mxGeometry>
        </mxCell>
        <mxCell id="cTSy6u-QbdNvS9XZRoj6-27" value="" style="group" vertex="1" connectable="0" parent="1">
          <mxGeometry x="-388" y="390" width="60" height="40" as="geometry" />
        </mxCell>
        <mxCell id="cTSy6u-QbdNvS9XZRoj6-21" value="" style="verticalLabelPosition=bottom;verticalAlign=top;html=1;shape=card;whiteSpace=wrap;size=20;arcSize=12;rotation=-180;" vertex="1" parent="cTSy6u-QbdNvS9XZRoj6-27">
          <mxGeometry x="3.552713678800501e-15" y="10" width="60" height="40" as="geometry" />
        </mxCell>
        <mxCell id="cTSy6u-QbdNvS9XZRoj6-26" value="loop" style="text;html=1;align=center;verticalAlign=middle;resizable=0;points=[];autosize=1;strokeColor=none;fillColor=none;" vertex="1" parent="cTSy6u-QbdNvS9XZRoj6-27">
          <mxGeometry x="2.0033333333333374" y="15" width="50" height="30" as="geometry" />
        </mxCell>
        <mxCell id="cTSy6u-QbdNvS9XZRoj6-34" value="" style="endArrow=block;html=1;rounded=0;strokeWidth=2;endFill=1;entryX=0.865;entryY=-0.054;entryDx=0;entryDy=0;entryPerimeter=0;" edge="1" parent="1">
          <mxGeometry width="50" height="50" relative="1" as="geometry">
            <mxPoint x="-298" y="450" as="sourcePoint" />
            <mxPoint x="-31" y="450" as="targetPoint" />
          </mxGeometry>
        </mxCell>
        <mxCell id="cTSy6u-QbdNvS9XZRoj6-35" value="2. bewegen" style="edgeLabel;html=1;align=center;verticalAlign=middle;resizable=0;points=[];" vertex="1" connectable="0" parent="cTSy6u-QbdNvS9XZRoj6-34">
          <mxGeometry x="-0.3582" y="-3" relative="1" as="geometry">
            <mxPoint x="44" y="-13" as="offset" />
          </mxGeometry>
        </mxCell>
        <mxCell id="cTSy6u-QbdNvS9XZRoj6-36" value="" style="endArrow=block;html=1;rounded=0;strokeWidth=2;endFill=1;" edge="1" parent="1">
          <mxGeometry width="50" height="50" relative="1" as="geometry">
            <mxPoint x="-21" y="500" as="sourcePoint" />
            <mxPoint x="-21" y="560" as="targetPoint" />
            <Array as="points">
              <mxPoint x="39" y="500" />
              <mxPoint x="39" y="560" />
            </Array>
          </mxGeometry>
        </mxCell>
        <mxCell id="cTSy6u-QbdNvS9XZRoj6-37" value="2.1 prÃ¼fe Feld" style="edgeLabel;html=1;align=center;verticalAlign=middle;resizable=0;points=[];" vertex="1" connectable="0" parent="cTSy6u-QbdNvS9XZRoj6-36">
          <mxGeometry x="-0.3582" y="-3" relative="1" as="geometry">
            <mxPoint x="-7" y="-18" as="offset" />
          </mxGeometry>
        </mxCell>
        <mxCell id="cTSy6u-QbdNvS9XZRoj6-49" value="" style="rounded=1;whiteSpace=wrap;html=1;absoluteArcSize=1;arcSize=0;strokeWidth=2;fillColor=none;" vertex="1" parent="1">
          <mxGeometry x="-328" y="600" width="330" height="110" as="geometry" />
        </mxCell>
        <mxCell id="cTSy6u-QbdNvS9XZRoj6-50" value="" style="group" vertex="1" connectable="0" parent="1">
          <mxGeometry x="-328" y="600" width="61.71428571428571" height="40" as="geometry" />
        </mxCell>
        <mxCell id="cTSy6u-QbdNvS9XZRoj6-51" value="" style="verticalLabelPosition=bottom;verticalAlign=top;html=1;shape=card;whiteSpace=wrap;size=20;arcSize=12;rotation=-180;" vertex="1" parent="cTSy6u-QbdNvS9XZRoj6-50">
          <mxGeometry x="3.654219783909086e-15" width="61.71428571428571" height="40" as="geometry" />
        </mxCell>
        <mxCell id="cTSy6u-QbdNvS9XZRoj6-52" value="alt" style="text;html=1;align=center;verticalAlign=middle;resizable=0;points=[];autosize=1;strokeColor=none;fillColor=none;" vertex="1" parent="cTSy6u-QbdNvS9XZRoj6-50">
          <mxGeometry x="7.203428571428575" y="5" width="40" height="30" as="geometry" />
        </mxCell>
        <mxCell id="cTSy6u-QbdNvS9XZRoj6-54" value="" style="endArrow=none;html=1;rounded=0;strokeWidth=2;endFill=0;entryX=0.865;entryY=-0.054;entryDx=0;entryDy=0;entryPerimeter=0;startArrow=open;startFill=0;dashed=1;" edge="1" parent="1">
          <mxGeometry width="50" height="50" relative="1" as="geometry">
            <mxPoint x="-298" y="670" as="sourcePoint" />
            <mxPoint x="-31" y="670" as="targetPoint" />
          </mxGeometry>
        </mxCell>
        <mxCell id="cTSy6u-QbdNvS9XZRoj6-55" value="2.2 Fehlermeldung" style="edgeLabel;html=1;align=center;verticalAlign=middle;resizable=0;points=[];" vertex="1" connectable="0" parent="cTSy6u-QbdNvS9XZRoj6-54">
          <mxGeometry x="-0.3582" y="-3" relative="1" as="geometry">
            <mxPoint x="44" y="-13" as="offset" />
          </mxGeometry>
        </mxCell>
        <mxCell id="cTSy6u-QbdNvS9XZRoj6-57" style="edgeStyle=orthogonalEdgeStyle;rounded=0;orthogonalLoop=1;jettySize=auto;html=1;exitX=0.5;exitY=1;exitDx=0;exitDy=0;" edge="1" parent="1" source="cTSy6u-QbdNvS9XZRoj6-49" target="cTSy6u-QbdNvS9XZRoj6-49">
          <mxGeometry relative="1" as="geometry" />
        </mxCell>
        <mxCell id="cTSy6u-QbdNvS9XZRoj6-58" value="" style="rounded=1;whiteSpace=wrap;html=1;absoluteArcSize=1;arcSize=0;strokeWidth=2;fillColor=none;" vertex="1" parent="1">
          <mxGeometry x="-328" y="710" width="330" height="110" as="geometry" />
        </mxCell>
        <mxCell id="cTSy6u-QbdNvS9XZRoj6-59" value="" style="group" vertex="1" connectable="0" parent="1">
          <mxGeometry x="-328" y="710" width="61.71428571428571" height="40" as="geometry" />
        </mxCell>
        <mxCell id="cTSy6u-QbdNvS9XZRoj6-60" value="" style="verticalLabelPosition=bottom;verticalAlign=top;html=1;shape=card;whiteSpace=wrap;size=20;arcSize=12;rotation=-180;" vertex="1" parent="cTSy6u-QbdNvS9XZRoj6-59">
          <mxGeometry x="3.654219783909086e-15" width="61.71428571428571" height="40" as="geometry" />
        </mxCell>
        <mxCell id="cTSy6u-QbdNvS9XZRoj6-61" value="alt" style="text;html=1;align=center;verticalAlign=middle;resizable=0;points=[];autosize=1;strokeColor=none;fillColor=none;" vertex="1" parent="cTSy6u-QbdNvS9XZRoj6-59">
          <mxGeometry x="7.203428571428575" y="5" width="40" height="30" as="geometry" />
        </mxCell>
        <mxCell id="cTSy6u-QbdNvS9XZRoj6-62" value="" style="endArrow=none;html=1;rounded=0;strokeWidth=2;endFill=0;entryX=0.865;entryY=-0.054;entryDx=0;entryDy=0;entryPerimeter=0;startArrow=open;startFill=0;dashed=1;" edge="1" parent="1">
          <mxGeometry width="50" height="50" relative="1" as="geometry">
            <mxPoint x="-298" y="780" as="sourcePoint" />
            <mxPoint x="-31" y="780" as="targetPoint" />
          </mxGeometry>
        </mxCell>
        <mxCell id="cTSy6u-QbdNvS9XZRoj6-63" value="2.2 BestÃ¤tigung" style="edgeLabel;html=1;align=center;verticalAlign=middle;resizable=0;points=[];" vertex="1" connectable="0" parent="cTSy6u-QbdNvS9XZRoj6-62">
          <mxGeometry x="-0.3582" y="-3" relative="1" as="geometry">
            <mxPoint x="44" y="-13" as="offset" />
          </mxGeometry>
        </mxCell>
        <mxCell id="cTSy6u-QbdNvS9XZRoj6-64" style="edgeStyle=orthogonalEdgeStyle;rounded=0;orthogonalLoop=1;jettySize=auto;html=1;exitX=0.5;exitY=1;exitDx=0;exitDy=0;" edge="1" source="cTSy6u-QbdNvS9XZRoj6-58" target="cTSy6u-QbdNvS9XZRoj6-58" parent="1">
          <mxGeometry relative="1" as="geometry" />
        </mxCell>
        <mxCell id="cTSy6u-QbdNvS9XZRoj6-66" value="" style="group" vertex="1" connectable="0" parent="1">
          <mxGeometry x="-418" y="860" width="60" height="40" as="geometry" />
        </mxCell>
        <mxCell id="cTSy6u-QbdNvS9XZRoj6-67" value="" style="verticalLabelPosition=bottom;verticalAlign=top;html=1;shape=card;whiteSpace=wrap;size=20;arcSize=12;rotation=-180;" vertex="1" parent="cTSy6u-QbdNvS9XZRoj6-66">
          <mxGeometry x="3.552713678800501e-15" width="60" height="40" as="geometry" />
        </mxCell>
        <mxCell id="cTSy6u-QbdNvS9XZRoj6-68" value="alt" style="text;html=1;align=center;verticalAlign=middle;resizable=0;points=[];autosize=1;strokeColor=none;fillColor=none;" vertex="1" parent="cTSy6u-QbdNvS9XZRoj6-66">
          <mxGeometry x="7.003333333333337" y="5" width="40" height="30" as="geometry" />
        </mxCell>
        <mxCell id="cTSy6u-QbdNvS9XZRoj6-69" value="" style="endArrow=block;html=1;rounded=0;strokeWidth=2;endFill=1;entryX=0.865;entryY=-0.054;entryDx=0;entryDy=0;entryPerimeter=0;" edge="1" parent="1">
          <mxGeometry width="50" height="50" relative="1" as="geometry">
            <mxPoint x="-296.5" y="930" as="sourcePoint" />
            <mxPoint x="-29.5" y="930" as="targetPoint" />
          </mxGeometry>
        </mxCell>
        <mxCell id="cTSy6u-QbdNvS9XZRoj6-70" value="3. verdÃ¤chtigen" style="edgeLabel;html=1;align=center;verticalAlign=middle;resizable=0;points=[];" vertex="1" connectable="0" parent="cTSy6u-QbdNvS9XZRoj6-69">
          <mxGeometry x="-0.3582" y="-3" relative="1" as="geometry">
            <mxPoint x="44" y="-13" as="offset" />
          </mxGeometry>
        </mxCell>
        <mxCell id="cTSy6u-QbdNvS9XZRoj6-71" value="" style="endArrow=block;html=1;rounded=0;strokeWidth=2;endFill=1;" edge="1" parent="1">
          <mxGeometry width="50" height="50" relative="1" as="geometry">
            <mxPoint x="-21" y="970" as="sourcePoint" />
            <mxPoint x="-21" y="1030" as="targetPoint" />
            <Array as="points">
              <mxPoint x="39" y="970" />
              <mxPoint x="39" y="1030" />
            </Array>
          </mxGeometry>
        </mxCell>
        <mxCell id="cTSy6u-QbdNvS9XZRoj6-72" value="3.1 prÃ¼fe Spielerposition" style="edgeLabel;html=1;align=center;verticalAlign=middle;resizable=0;points=[];" vertex="1" connectable="0" parent="cTSy6u-QbdNvS9XZRoj6-71">
          <mxGeometry x="-0.3582" y="-3" relative="1" as="geometry">
            <mxPoint x="13" y="-18" as="offset" />
          </mxGeometry>
        </mxCell>
        <mxCell id="cTSy6u-QbdNvS9XZRoj6-73" value="" style="endArrow=none;dashed=1;html=1;strokeWidth=2;rounded=0;exitX=1;exitY=0.5;exitDx=0;exitDy=0;entryX=0;entryY=0.5;entryDx=0;entryDy=0;" edge="1" source="cTSy6u-QbdNvS9XZRoj6-74" parent="1" target="cTSy6u-QbdNvS9XZRoj6-12">
          <mxGeometry width="50" height="50" relative="1" as="geometry">
            <mxPoint x="-15.5" y="455" as="sourcePoint" />
            <mxPoint x="-25.5" y="405" as="targetPoint" />
          </mxGeometry>
        </mxCell>
        <mxCell id="cTSy6u-QbdNvS9XZRoj6-75" value="" style="endArrow=none;dashed=1;html=1;dashPattern=1 3;strokeWidth=2;rounded=0;exitX=1;exitY=0.5;exitDx=0;exitDy=0;entryX=0;entryY=0.5;entryDx=0;entryDy=0;" edge="1" parent="1" source="cTSy6u-QbdNvS9XZRoj6-76" target="cTSy6u-QbdNvS9XZRoj6-74">
          <mxGeometry width="50" height="50" relative="1" as="geometry">
            <mxPoint x="-15.5" y="927" as="sourcePoint" />
            <mxPoint x="-25" y="850" as="targetPoint" />
          </mxGeometry>
        </mxCell>
        <mxCell id="cTSy6u-QbdNvS9XZRoj6-77" value="" style="rounded=1;whiteSpace=wrap;html=1;absoluteArcSize=1;arcSize=0;strokeWidth=2;fillColor=none;" vertex="1" parent="1">
          <mxGeometry x="-388" y="1060" width="730" height="200" as="geometry" />
        </mxCell>
        <mxCell id="cTSy6u-QbdNvS9XZRoj6-78" value="" style="group" vertex="1" connectable="0" parent="1">
          <mxGeometry x="-388" y="1060" width="61.71428571428571" height="40" as="geometry" />
        </mxCell>
        <mxCell id="cTSy6u-QbdNvS9XZRoj6-79" value="" style="verticalLabelPosition=bottom;verticalAlign=top;html=1;shape=card;whiteSpace=wrap;size=20;arcSize=12;rotation=-180;" vertex="1" parent="cTSy6u-QbdNvS9XZRoj6-78">
          <mxGeometry x="3.654219783909086e-15" width="61.71428571428571" height="40" as="geometry" />
        </mxCell>
        <mxCell id="cTSy6u-QbdNvS9XZRoj6-80" value="alt" style="text;html=1;align=center;verticalAlign=middle;resizable=0;points=[];autosize=1;strokeColor=none;fillColor=none;" vertex="1" parent="cTSy6u-QbdNvS9XZRoj6-78">
          <mxGeometry x="7.203428571428575" y="5" width="40" height="30" as="geometry" />
        </mxCell>
        <mxCell id="cTSy6u-QbdNvS9XZRoj6-81" value="" style="endArrow=none;html=1;rounded=0;strokeWidth=2;endFill=0;entryX=0.865;entryY=-0.054;entryDx=0;entryDy=0;entryPerimeter=0;startArrow=open;startFill=0;dashed=1;" edge="1" parent="1">
          <mxGeometry width="50" height="50" relative="1" as="geometry">
            <mxPoint x="-296" y="1120" as="sourcePoint" />
            <mxPoint x="-29" y="1120" as="targetPoint" />
          </mxGeometry>
        </mxCell>
        <mxCell id="cTSy6u-QbdNvS9XZRoj6-82" value="3.2 Fehlermeldung" style="edgeLabel;html=1;align=center;verticalAlign=middle;resizable=0;points=[];" vertex="1" connectable="0" parent="cTSy6u-QbdNvS9XZRoj6-81">
          <mxGeometry x="-0.3582" y="-3" relative="1" as="geometry">
            <mxPoint x="44" y="-13" as="offset" />
          </mxGeometry>
        </mxCell>
        <mxCell id="cTSy6u-QbdNvS9XZRoj6-85" value="" style="endArrow=none;html=1;rounded=0;strokeWidth=2;endFill=0;entryX=0.865;entryY=-0.054;entryDx=0;entryDy=0;entryPerimeter=0;startArrow=block;startFill=1;" edge="1" parent="1">
          <mxGeometry width="50" height="50" relative="1" as="geometry">
            <mxPoint x="-296.5" y="1170" as="sourcePoint" />
            <mxPoint x="-29.5" y="1170" as="targetPoint" />
          </mxGeometry>
        </mxCell>
        <mxCell id="cTSy6u-QbdNvS9XZRoj6-86" value="3.3 beende Zug" style="edgeLabel;html=1;align=center;verticalAlign=middle;resizable=0;points=[];" vertex="1" connectable="0" parent="cTSy6u-QbdNvS9XZRoj6-85">
          <mxGeometry x="-0.3582" y="-3" relative="1" as="geometry">
            <mxPoint x="44" y="-13" as="offset" />
          </mxGeometry>
        </mxCell>
        <mxCell id="cTSy6u-QbdNvS9XZRoj6-88" value="" style="endArrow=block;html=1;rounded=0;strokeWidth=2;endFill=1;entryX=0.865;entryY=-0.054;entryDx=0;entryDy=0;entryPerimeter=0;startArrow=none;startFill=0;" edge="1" parent="1">
          <mxGeometry width="50" height="50" relative="1" as="geometry">
            <mxPoint x="-18" y="1220" as="sourcePoint" />
            <mxPoint x="249" y="1220" as="targetPoint" />
          </mxGeometry>
        </mxCell>
        <mxCell id="cTSy6u-QbdNvS9XZRoj6-89" value="3.4 teile Zugrecht ein" style="edgeLabel;html=1;align=center;verticalAlign=middle;resizable=0;points=[];" vertex="1" connectable="0" parent="cTSy6u-QbdNvS9XZRoj6-88">
          <mxGeometry x="-0.3582" y="-3" relative="1" as="geometry">
            <mxPoint x="44" y="-13" as="offset" />
          </mxGeometry>
        </mxCell>
        <mxCell id="cTSy6u-QbdNvS9XZRoj6-93" value="" style="endArrow=none;dashed=1;html=1;strokeWidth=2;rounded=0;exitX=1;exitY=0.5;exitDx=0;exitDy=0;entryX=0;entryY=0.5;entryDx=0;entryDy=0;" edge="1" source="cTSy6u-QbdNvS9XZRoj6-92" parent="1">
          <mxGeometry width="50" height="50" relative="1" as="geometry">
            <mxPoint x="266.25" y="334.13" as="sourcePoint" />
            <mxPoint x="256.75" y="257.13" as="targetPoint" />
          </mxGeometry>
        </mxCell>
        <mxCell id="cTSy6u-QbdNvS9XZRoj6-95" value="" style="group" vertex="1" connectable="0" parent="1">
          <mxGeometry x="-388" y="1260" width="61.71428571428571" height="40" as="geometry" />
        </mxCell>
        <mxCell id="cTSy6u-QbdNvS9XZRoj6-96" value="" style="verticalLabelPosition=bottom;verticalAlign=top;html=1;shape=card;whiteSpace=wrap;size=20;arcSize=12;rotation=-180;" vertex="1" parent="cTSy6u-QbdNvS9XZRoj6-95">
          <mxGeometry x="3.654219783909086e-15" width="61.71428571428571" height="40" as="geometry" />
        </mxCell>
        <mxCell id="cTSy6u-QbdNvS9XZRoj6-97" value="alt" style="text;html=1;align=center;verticalAlign=middle;resizable=0;points=[];autosize=1;strokeColor=none;fillColor=none;" vertex="1" parent="cTSy6u-QbdNvS9XZRoj6-95">
          <mxGeometry x="7.203428571428575" y="5" width="40" height="30" as="geometry" />
        </mxCell>
        <mxCell id="cTSy6u-QbdNvS9XZRoj6-98" value="" style="endArrow=none;html=1;rounded=0;strokeWidth=2;endFill=0;entryX=0.865;entryY=-0.054;entryDx=0;entryDy=0;entryPerimeter=0;startArrow=block;startFill=1;" edge="1" parent="1">
          <mxGeometry width="50" height="50" relative="1" as="geometry">
            <mxPoint x="-296.5" y="1490" as="sourcePoint" />
            <mxPoint x="-29.5" y="1490" as="targetPoint" />
          </mxGeometry>
        </mxCell>
        <mxCell id="cTSy6u-QbdNvS9XZRoj6-99" value="3.5 Ã¼bermittle Hinweise" style="edgeLabel;html=1;align=center;verticalAlign=middle;resizable=0;points=[];" vertex="1" connectable="0" parent="cTSy6u-QbdNvS9XZRoj6-98">
          <mxGeometry x="-0.3582" y="-3" relative="1" as="geometry">
            <mxPoint x="44" y="-13" as="offset" />
          </mxGeometry>
        </mxCell>
        <mxCell id="cTSy6u-QbdNvS9XZRoj6-100" value="" style="endArrow=block;html=1;rounded=0;strokeWidth=2;endFill=1;entryX=0.865;entryY=-0.054;entryDx=0;entryDy=0;entryPerimeter=0;startArrow=none;startFill=0;" edge="1" parent="1">
          <mxGeometry width="50" height="50" relative="1" as="geometry">
            <mxPoint x="-18" y="1300" as="sourcePoint" />
            <mxPoint x="249" y="1300" as="targetPoint" />
          </mxGeometry>
        </mxCell>
        <mxCell id="cTSy6u-QbdNvS9XZRoj6-101" value="3.2 Ã¼bermittle den Verdacht" style="edgeLabel;html=1;align=center;verticalAlign=middle;resizable=0;points=[];" vertex="1" connectable="0" parent="cTSy6u-QbdNvS9XZRoj6-100">
          <mxGeometry x="-0.3582" y="-3" relative="1" as="geometry">
            <mxPoint x="44" y="-13" as="offset" />
          </mxGeometry>
        </mxCell>
        <mxCell id="cTSy6u-QbdNvS9XZRoj6-104" value="" style="endArrow=none;dashed=1;html=1;strokeWidth=2;rounded=0;exitX=1;exitY=0.5;exitDx=0;exitDy=0;entryX=0;entryY=0.5;entryDx=0;entryDy=0;" edge="1" parent="1" source="cTSy6u-QbdNvS9XZRoj6-102" target="cTSy6u-QbdNvS9XZRoj6-92">
          <mxGeometry width="50" height="50" relative="1" as="geometry">
            <mxPoint x="256.54999999999995" y="1315" as="sourcePoint" />
            <mxPoint x="256.54999999999995" y="1245" as="targetPoint" />
          </mxGeometry>
        </mxCell>
        <mxCell id="cTSy6u-QbdNvS9XZRoj6-105" value="" style="endArrow=none;html=1;rounded=0;strokeWidth=2;endFill=0;entryX=0.865;entryY=-0.054;entryDx=0;entryDy=0;entryPerimeter=0;startArrow=open;startFill=0;" edge="1" parent="1">
          <mxGeometry width="50" height="50" relative="1" as="geometry">
            <mxPoint x="-18" y="1440" as="sourcePoint" />
            <mxPoint x="249" y="1440" as="targetPoint" />
          </mxGeometry>
        </mxCell>
        <mxCell id="cTSy6u-QbdNvS9XZRoj6-106" value="3.4 Ã¼bermittle Hinweise" style="edgeLabel;html=1;align=center;verticalAlign=middle;resizable=0;points=[];" vertex="1" connectable="0" parent="cTSy6u-QbdNvS9XZRoj6-105">
          <mxGeometry x="-0.3582" y="-3" relative="1" as="geometry">
            <mxPoint x="44" y="-13" as="offset" />
          </mxGeometry>
        </mxCell>
        <mxCell id="cTSy6u-QbdNvS9XZRoj6-107" value="" style="endArrow=block;html=1;rounded=0;strokeWidth=2;endFill=1;" edge="1" parent="1">
          <mxGeometry width="50" height="50" relative="1" as="geometry">
            <mxPoint x="262" y="1330" as="sourcePoint" />
            <mxPoint x="262" y="1390" as="targetPoint" />
            <Array as="points">
              <mxPoint x="322" y="1330" />
              <mxPoint x="322" y="1390" />
            </Array>
          </mxGeometry>
        </mxCell>
        <mxCell id="cTSy6u-QbdNvS9XZRoj6-108" value="3.3 prÃ¼fe Verdacht" style="edgeLabel;html=1;align=center;verticalAlign=middle;resizable=0;points=[];" vertex="1" connectable="0" parent="cTSy6u-QbdNvS9XZRoj6-107">
          <mxGeometry x="-0.3582" y="-3" relative="1" as="geometry">
            <mxPoint x="-3" y="-18" as="offset" />
          </mxGeometry>
        </mxCell>
        <mxCell id="cTSy6u-QbdNvS9XZRoj6-109" value="" style="endArrow=block;html=1;rounded=0;strokeWidth=2;endFill=1;" edge="1" parent="1">
          <mxGeometry width="50" height="50" relative="1" as="geometry">
            <mxPoint x="-308.0000000000002" y="1540" as="sourcePoint" />
            <mxPoint x="-308.0000000000002" y="1600" as="targetPoint" />
            <Array as="points">
              <mxPoint x="-368.0000000000002" y="1540" />
              <mxPoint x="-368.0000000000002" y="1600" />
            </Array>
          </mxGeometry>
        </mxCell>
        <mxCell id="cTSy6u-QbdNvS9XZRoj6-110" value="3.6 notiere Hinweis" style="edgeLabel;html=1;align=center;verticalAlign=middle;resizable=0;points=[];" vertex="1" connectable="0" parent="cTSy6u-QbdNvS9XZRoj6-109">
          <mxGeometry x="-0.3582" y="-3" relative="1" as="geometry">
            <mxPoint x="1" y="-12" as="offset" />
          </mxGeometry>
        </mxCell>
        <mxCell id="cTSy6u-QbdNvS9XZRoj6-111" value="" style="endArrow=block;html=1;rounded=0;strokeWidth=2;endFill=1;entryX=0.865;entryY=-0.054;entryDx=0;entryDy=0;entryPerimeter=0;startArrow=none;startFill=0;" edge="1" parent="1">
          <mxGeometry width="50" height="50" relative="1" as="geometry">
            <mxPoint x="-296.5" y="1690" as="sourcePoint" />
            <mxPoint x="-29.5" y="1690" as="targetPoint" />
          </mxGeometry>
        </mxCell>
        <mxCell id="cTSy6u-QbdNvS9XZRoj6-112" value="3.7 beende Zug" style="edgeLabel;html=1;align=center;verticalAlign=middle;resizable=0;points=[];" vertex="1" connectable="0" parent="cTSy6u-QbdNvS9XZRoj6-111">
          <mxGeometry x="-0.3582" y="-3" relative="1" as="geometry">
            <mxPoint x="44" y="-13" as="offset" />
          </mxGeometry>
        </mxCell>
        <mxCell id="cTSy6u-QbdNvS9XZRoj6-115" value="" style="group" vertex="1" connectable="0" parent="1">
          <mxGeometry x="-326.28999999999996" y="1630" width="61.71428571428571" height="40" as="geometry" />
        </mxCell>
        <mxCell id="cTSy6u-QbdNvS9XZRoj6-116" value="" style="verticalLabelPosition=bottom;verticalAlign=top;html=1;shape=card;whiteSpace=wrap;size=20;arcSize=12;rotation=-180;" vertex="1" parent="cTSy6u-QbdNvS9XZRoj6-115">
          <mxGeometry x="3.654219783909086e-15" width="61.71428571428571" height="40" as="geometry" />
        </mxCell>
        <mxCell id="cTSy6u-QbdNvS9XZRoj6-117" value="alt" style="text;html=1;align=center;verticalAlign=middle;resizable=0;points=[];autosize=1;strokeColor=none;fillColor=none;" vertex="1" parent="cTSy6u-QbdNvS9XZRoj6-115">
          <mxGeometry x="7.203428571428575" y="5" width="40" height="30" as="geometry" />
        </mxCell>
        <mxCell id="cTSy6u-QbdNvS9XZRoj6-119" value="" style="endArrow=none;dashed=1;html=1;strokeWidth=2;rounded=0;exitX=1;exitY=0.5;exitDx=0;exitDy=0;entryX=0;entryY=0.5;entryDx=0;entryDy=0;" edge="1" source="cTSy6u-QbdNvS9XZRoj6-118" parent="1" target="cTSy6u-QbdNvS9XZRoj6-76">
          <mxGeometry width="50" height="50" relative="1" as="geometry">
            <mxPoint x="-15.509999999999991" y="1607" as="sourcePoint" />
            <mxPoint x="-26.00999999999999" y="1510" as="targetPoint" />
          </mxGeometry>
        </mxCell>
        <mxCell id="cTSy6u-QbdNvS9XZRoj6-121" value="" style="group" vertex="1" connectable="0" parent="1">
          <mxGeometry x="-326.28999999999996" y="1740" width="61.71428571428571" height="40" as="geometry" />
        </mxCell>
        <mxCell id="cTSy6u-QbdNvS9XZRoj6-122" value="" style="verticalLabelPosition=bottom;verticalAlign=top;html=1;shape=card;whiteSpace=wrap;size=20;arcSize=12;rotation=-180;" vertex="1" parent="cTSy6u-QbdNvS9XZRoj6-121">
          <mxGeometry x="3.654219783909086e-15" width="61.71428571428571" height="40" as="geometry" />
        </mxCell>
        <mxCell id="cTSy6u-QbdNvS9XZRoj6-123" value="alt" style="text;html=1;align=center;verticalAlign=middle;resizable=0;points=[];autosize=1;strokeColor=none;fillColor=none;" vertex="1" parent="cTSy6u-QbdNvS9XZRoj6-121">
          <mxGeometry x="7.203428571428575" y="5" width="40" height="30" as="geometry" />
        </mxCell>
        <mxCell id="cTSy6u-QbdNvS9XZRoj6-124" value="" style="endArrow=block;html=1;rounded=0;strokeWidth=2;endFill=1;entryX=0.865;entryY=-0.054;entryDx=0;entryDy=0;entryPerimeter=0;startArrow=none;startFill=0;" edge="1" parent="1">
          <mxGeometry width="50" height="50" relative="1" as="geometry">
            <mxPoint x="-296.5" y="1810" as="sourcePoint" />
            <mxPoint x="-29.5" y="1810" as="targetPoint" />
          </mxGeometry>
        </mxCell>
        <mxCell id="cTSy6u-QbdNvS9XZRoj6-125" value="3.7 erhebe Anklage" style="edgeLabel;html=1;align=center;verticalAlign=middle;resizable=0;points=[];" vertex="1" connectable="0" parent="cTSy6u-QbdNvS9XZRoj6-124">
          <mxGeometry x="-0.3582" y="-3" relative="1" as="geometry">
            <mxPoint x="44" y="-13" as="offset" />
          </mxGeometry>
        </mxCell>
        <mxCell id="cTSy6u-QbdNvS9XZRoj6-126" value="" style="group" vertex="1" connectable="0" parent="1">
          <mxGeometry x="-418" y="1950" width="60" height="40" as="geometry" />
        </mxCell>
        <mxCell id="cTSy6u-QbdNvS9XZRoj6-127" value="" style="verticalLabelPosition=bottom;verticalAlign=top;html=1;shape=card;whiteSpace=wrap;size=20;arcSize=12;rotation=-180;" vertex="1" parent="cTSy6u-QbdNvS9XZRoj6-126">
          <mxGeometry x="3.552713678800501e-15" width="60" height="40" as="geometry" />
        </mxCell>
        <mxCell id="cTSy6u-QbdNvS9XZRoj6-128" value="alt" style="text;html=1;align=center;verticalAlign=middle;resizable=0;points=[];autosize=1;strokeColor=none;fillColor=none;" vertex="1" parent="cTSy6u-QbdNvS9XZRoj6-126">
          <mxGeometry x="7.003333333333337" y="5" width="40" height="30" as="geometry" />
        </mxCell>
        <mxCell id="cTSy6u-QbdNvS9XZRoj6-130" value="" style="endArrow=block;html=1;rounded=0;strokeWidth=2;endFill=1;entryX=0.865;entryY=-0.054;entryDx=0;entryDy=0;entryPerimeter=0;" edge="1" parent="1">
          <mxGeometry width="50" height="50" relative="1" as="geometry">
            <mxPoint x="-296.5" y="2010" as="sourcePoint" />
            <mxPoint x="-29.5" y="2010" as="targetPoint" />
          </mxGeometry>
        </mxCell>
        <mxCell id="cTSy6u-QbdNvS9XZRoj6-131" value="3. erhebe Anklage" style="edgeLabel;html=1;align=center;verticalAlign=middle;resizable=0;points=[];" vertex="1" connectable="0" parent="cTSy6u-QbdNvS9XZRoj6-130">
          <mxGeometry x="-0.3582" y="-3" relative="1" as="geometry">
            <mxPoint x="44" y="-13" as="offset" />
          </mxGeometry>
        </mxCell>
        <mxCell id="cTSy6u-QbdNvS9XZRoj6-135" value="" style="group" vertex="1" connectable="0" parent="1">
          <mxGeometry x="-468" y="120" width="160" height="40" as="geometry" />
        </mxCell>
        <mxCell id="cTSy6u-QbdNvS9XZRoj6-136" value="" style="verticalLabelPosition=bottom;verticalAlign=top;html=1;shape=card;whiteSpace=wrap;size=20;arcSize=12;rotation=-180;" vertex="1" parent="cTSy6u-QbdNvS9XZRoj6-135">
          <mxGeometry width="160" height="40" as="geometry" />
        </mxCell>
        <mxCell id="cTSy6u-QbdNvS9XZRoj6-137" value="&lt;b&gt;sd &lt;/b&gt;Spielzug durchfÃ¼hren" style="text;html=1;align=center;verticalAlign=middle;resizable=0;points=[];autosize=1;strokeColor=none;fillColor=none;" vertex="1" parent="cTSy6u-QbdNvS9XZRoj6-135">
          <mxGeometry x="-0.0005555555555503133" y="5" width="150" height="30" as="geometry" />
        </mxCell>
        <mxCell id="cTSy6u-QbdNvS9XZRoj6-140" value="Spieler" style="shape=umlActor;verticalLabelPosition=bottom;verticalAlign=top;html=1;outlineConnect=0;fillColor=#dae8fc;strokeColor=#6c8ebf;" vertex="1" parent="1">
          <mxGeometry x="674" y="170" width="30" height="60" as="geometry" />
        </mxCell>
        <mxCell id="cTSy6u-QbdNvS9XZRoj6-142" value="" style="endArrow=none;dashed=1;html=1;strokeWidth=2;rounded=0;exitX=1;exitY=0.5;exitDx=0;exitDy=0;" edge="1" source="cTSy6u-QbdNvS9XZRoj6-143" parent="1">
          <mxGeometry width="50" height="50" relative="1" as="geometry">
            <mxPoint x="976.5" y="300" as="sourcePoint" />
            <mxPoint x="966.5" y="250" as="targetPoint" />
          </mxGeometry>
        </mxCell>
        <mxCell id="cTSy6u-QbdNvS9XZRoj6-144" value="CLUEDO" style="rounded=0;whiteSpace=wrap;html=1;fillColor=#e1d5e7;strokeColor=#9673a6;" vertex="1" parent="1">
          <mxGeometry x="909" y="170" width="120" height="60" as="geometry" />
        </mxCell>
        <mxCell id="cTSy6u-QbdNvS9XZRoj6-147" value="" style="endArrow=classic;html=1;rounded=0;strokeWidth=2;endFill=1;entryX=0.865;entryY=-0.054;entryDx=0;entryDy=0;entryPerimeter=0;startArrow=none;startFill=0;exitX=0.95;exitY=0.961;exitDx=0;exitDy=0;exitPerimeter=0;" edge="1" parent="1" source="cTSy6u-QbdNvS9XZRoj6-141">
          <mxGeometry width="50" height="50" relative="1" as="geometry">
            <mxPoint x="702" y="280" as="sourcePoint" />
            <mxPoint x="959" y="300" as="targetPoint" />
          </mxGeometry>
        </mxCell>
        <mxCell id="cTSy6u-QbdNvS9XZRoj6-148" value="1. anklagen" style="edgeLabel;html=1;align=center;verticalAlign=middle;resizable=0;points=[];" vertex="1" connectable="0" parent="cTSy6u-QbdNvS9XZRoj6-147">
          <mxGeometry x="-0.3582" y="-3" relative="1" as="geometry">
            <mxPoint x="44" y="-13" as="offset" />
          </mxGeometry>
        </mxCell>
        <mxCell id="cTSy6u-QbdNvS9XZRoj6-149" value="" style="endArrow=block;html=1;rounded=0;strokeWidth=2;endFill=1;" edge="1" parent="1">
          <mxGeometry width="50" height="50" relative="1" as="geometry">
            <mxPoint x="972" y="350" as="sourcePoint" />
            <mxPoint x="972" y="410" as="targetPoint" />
            <Array as="points">
              <mxPoint x="1032" y="350" />
              <mxPoint x="1032" y="410" />
            </Array>
          </mxGeometry>
        </mxCell>
        <mxCell id="cTSy6u-QbdNvS9XZRoj6-150" value="1.1 prÃ¼fe Spielerposition" style="edgeLabel;html=1;align=center;verticalAlign=middle;resizable=0;points=[];" vertex="1" connectable="0" parent="cTSy6u-QbdNvS9XZRoj6-149">
          <mxGeometry x="-0.3582" y="-3" relative="1" as="geometry">
            <mxPoint x="13" y="-18" as="offset" />
          </mxGeometry>
        </mxCell>
        <mxCell id="cTSy6u-QbdNvS9XZRoj6-155" value="" style="rounded=1;whiteSpace=wrap;html=1;absoluteArcSize=1;arcSize=0;strokeWidth=2;fillColor=none;" vertex="1" parent="1">
          <mxGeometry x="642" y="440" width="650" height="170" as="geometry" />
        </mxCell>
        <mxCell id="cTSy6u-QbdNvS9XZRoj6-156" value="" style="group" vertex="1" connectable="0" parent="1">
          <mxGeometry x="642" y="440" width="61.71428571428571" height="40" as="geometry" />
        </mxCell>
        <mxCell id="cTSy6u-QbdNvS9XZRoj6-157" value="" style="verticalLabelPosition=bottom;verticalAlign=top;html=1;shape=card;whiteSpace=wrap;size=20;arcSize=12;rotation=-180;" vertex="1" parent="cTSy6u-QbdNvS9XZRoj6-156">
          <mxGeometry x="3.654219783909086e-15" width="61.71428571428571" height="40" as="geometry" />
        </mxCell>
        <mxCell id="cTSy6u-QbdNvS9XZRoj6-158" value="alt" style="text;html=1;align=center;verticalAlign=middle;resizable=0;points=[];autosize=1;strokeColor=none;fillColor=none;" vertex="1" parent="cTSy6u-QbdNvS9XZRoj6-156">
          <mxGeometry x="7.203428571428575" y="5" width="40" height="30" as="geometry" />
        </mxCell>
        <mxCell id="cTSy6u-QbdNvS9XZRoj6-159" value="" style="endArrow=none;html=1;rounded=0;strokeWidth=2;endFill=0;entryX=0.865;entryY=-0.054;entryDx=0;entryDy=0;entryPerimeter=0;startArrow=open;startFill=0;dashed=1;" edge="1" parent="1">
          <mxGeometry width="50" height="50" relative="1" as="geometry">
            <mxPoint x="693.5" y="499.09000000000003" as="sourcePoint" />
            <mxPoint x="960.5" y="499.09000000000003" as="targetPoint" />
          </mxGeometry>
        </mxCell>
        <mxCell id="cTSy6u-QbdNvS9XZRoj6-160" value="1.2 Fehlermeldung" style="edgeLabel;html=1;align=center;verticalAlign=middle;resizable=0;points=[];" vertex="1" connectable="0" parent="cTSy6u-QbdNvS9XZRoj6-159">
          <mxGeometry x="-0.3582" y="-3" relative="1" as="geometry">
            <mxPoint x="44" y="-13" as="offset" />
          </mxGeometry>
        </mxCell>
        <mxCell id="cTSy6u-QbdNvS9XZRoj6-161" value="" style="endArrow=none;html=1;rounded=0;strokeWidth=2;endFill=0;entryX=0.865;entryY=-0.054;entryDx=0;entryDy=0;entryPerimeter=0;startArrow=block;startFill=1;" edge="1" parent="1">
          <mxGeometry width="50" height="50" relative="1" as="geometry">
            <mxPoint x="693" y="549.09" as="sourcePoint" />
            <mxPoint x="960" y="549.09" as="targetPoint" />
          </mxGeometry>
        </mxCell>
        <mxCell id="cTSy6u-QbdNvS9XZRoj6-162" value="1.3 beende Zug" style="edgeLabel;html=1;align=center;verticalAlign=middle;resizable=0;points=[];" vertex="1" connectable="0" parent="cTSy6u-QbdNvS9XZRoj6-161">
          <mxGeometry x="-0.3582" y="-3" relative="1" as="geometry">
            <mxPoint x="44" y="-13" as="offset" />
          </mxGeometry>
        </mxCell>
        <mxCell id="cTSy6u-QbdNvS9XZRoj6-163" value="" style="group" vertex="1" connectable="0" parent="1">
          <mxGeometry x="642" y="610" width="61.71428571428571" height="40" as="geometry" />
        </mxCell>
        <mxCell id="cTSy6u-QbdNvS9XZRoj6-164" value="" style="verticalLabelPosition=bottom;verticalAlign=top;html=1;shape=card;whiteSpace=wrap;size=20;arcSize=12;rotation=-180;" vertex="1" parent="cTSy6u-QbdNvS9XZRoj6-163">
          <mxGeometry x="3.654219783909086e-15" width="61.71428571428571" height="40" as="geometry" />
        </mxCell>
        <mxCell id="cTSy6u-QbdNvS9XZRoj6-165" value="alt" style="text;html=1;align=center;verticalAlign=middle;resizable=0;points=[];autosize=1;strokeColor=none;fillColor=none;" vertex="1" parent="cTSy6u-QbdNvS9XZRoj6-163">
          <mxGeometry x="7.203428571428575" y="5" width="40" height="30" as="geometry" />
        </mxCell>
        <mxCell id="cTSy6u-QbdNvS9XZRoj6-167" value="Spieler" style="shape=umlActor;verticalLabelPosition=bottom;verticalAlign=top;html=1;outlineConnect=0;fillColor=#dae8fc;strokeColor=#6c8ebf;" vertex="1" parent="1">
          <mxGeometry x="1234" y="170" width="30" height="60" as="geometry" />
        </mxCell>
        <mxCell id="cTSy6u-QbdNvS9XZRoj6-169" value="" style="endArrow=none;dashed=1;html=1;strokeWidth=2;rounded=0;entryX=0;entryY=0.5;entryDx=0;entryDy=0;exitX=1;exitY=0.5;exitDx=0;exitDy=0;" edge="1" parent="1" source="cTSy6u-QbdNvS9XZRoj6-176">
          <mxGeometry width="50" height="50" relative="1" as="geometry">
            <mxPoint x="1249" y="520" as="sourcePoint" />
            <mxPoint x="1248.75" y="247.13" as="targetPoint" />
          </mxGeometry>
        </mxCell>
        <mxCell id="cTSy6u-QbdNvS9XZRoj6-170" value="" style="endArrow=none;html=1;rounded=0;strokeWidth=2;endFill=0;entryX=0.865;entryY=-0.054;entryDx=0;entryDy=0;entryPerimeter=0;startArrow=open;startFill=0;dashed=1;" edge="1" parent="1">
          <mxGeometry width="50" height="50" relative="1" as="geometry">
            <mxPoint x="694" y="850" as="sourcePoint" />
            <mxPoint x="961" y="850" as="targetPoint" />
          </mxGeometry>
        </mxCell>
        <mxCell id="cTSy6u-QbdNvS9XZRoj6-171" value="1.3 Gewinnmeldung" style="edgeLabel;html=1;align=center;verticalAlign=middle;resizable=0;points=[];" vertex="1" connectable="0" parent="cTSy6u-QbdNvS9XZRoj6-170">
          <mxGeometry x="-0.3582" y="-3" relative="1" as="geometry">
            <mxPoint x="44" y="-13" as="offset" />
          </mxGeometry>
        </mxCell>
        <mxCell id="cTSy6u-QbdNvS9XZRoj6-172" value="" style="endArrow=none;html=1;rounded=0;strokeWidth=2;endFill=0;entryX=0.865;entryY=-0.054;entryDx=0;entryDy=0;entryPerimeter=0;startArrow=open;startFill=0;dashed=1;" edge="1" parent="1">
          <mxGeometry width="50" height="50" relative="1" as="geometry">
            <mxPoint x="1242" y="880" as="sourcePoint" />
            <mxPoint x="972" y="880" as="targetPoint" />
          </mxGeometry>
        </mxCell>
        <mxCell id="cTSy6u-QbdNvS9XZRoj6-173" value="1.4 Niederlagenmeldung" style="edgeLabel;html=1;align=center;verticalAlign=middle;resizable=0;points=[];" vertex="1" connectable="0" parent="cTSy6u-QbdNvS9XZRoj6-172">
          <mxGeometry x="-0.3582" y="-3" relative="1" as="geometry">
            <mxPoint x="-41" y="-7" as="offset" />
          </mxGeometry>
        </mxCell>
        <mxCell id="cTSy6u-QbdNvS9XZRoj6-174" value="" style="endArrow=block;html=1;rounded=0;strokeWidth=2;endFill=1;" edge="1" parent="1">
          <mxGeometry width="50" height="50" relative="1" as="geometry">
            <mxPoint x="972" y="940" as="sourcePoint" />
            <mxPoint x="972" y="1000" as="targetPoint" />
            <Array as="points">
              <mxPoint x="1032" y="940" />
              <mxPoint x="1032" y="1000" />
            </Array>
          </mxGeometry>
        </mxCell>
        <mxCell id="cTSy6u-QbdNvS9XZRoj6-175" value="1.5 beende Spielrunde" style="edgeLabel;html=1;align=center;verticalAlign=middle;resizable=0;points=[];" vertex="1" connectable="0" parent="cTSy6u-QbdNvS9XZRoj6-174">
          <mxGeometry x="-0.3582" y="-3" relative="1" as="geometry">
            <mxPoint x="13" y="-18" as="offset" />
          </mxGeometry>
        </mxCell>
        <mxCell id="cTSy6u-QbdNvS9XZRoj6-176" value="" style="rounded=0;whiteSpace=wrap;html=1;rotation=-90;fillColor=#dae8fc;strokeColor=#6c8ebf;" vertex="1" parent="1">
          <mxGeometry x="1225.48" y="573.48" width="47.03" height="10" as="geometry" />
        </mxCell>
        <mxCell id="cTSy6u-QbdNvS9XZRoj6-178" value="" style="group" vertex="1" connectable="0" parent="1">
          <mxGeometry x="662" y="760" width="61.71428571428571" height="40" as="geometry" />
        </mxCell>
        <mxCell id="cTSy6u-QbdNvS9XZRoj6-179" value="" style="verticalLabelPosition=bottom;verticalAlign=top;html=1;shape=card;whiteSpace=wrap;size=20;arcSize=12;rotation=-180;" vertex="1" parent="cTSy6u-QbdNvS9XZRoj6-178">
          <mxGeometry x="3.654219783909086e-15" width="61.71428571428571" height="40" as="geometry" />
        </mxCell>
        <mxCell id="cTSy6u-QbdNvS9XZRoj6-180" value="alt" style="text;html=1;align=center;verticalAlign=middle;resizable=0;points=[];autosize=1;strokeColor=none;fillColor=none;" vertex="1" parent="cTSy6u-QbdNvS9XZRoj6-178">
          <mxGeometry x="7.203428571428575" y="5" width="40" height="30" as="geometry" />
        </mxCell>
        <mxCell id="cTSy6u-QbdNvS9XZRoj6-183" value="" style="group" vertex="1" connectable="0" parent="1">
          <mxGeometry x="662" y="1020" width="61.71428571428571" height="40" as="geometry" />
        </mxCell>
        <mxCell id="cTSy6u-QbdNvS9XZRoj6-184" value="" style="verticalLabelPosition=bottom;verticalAlign=top;html=1;shape=card;whiteSpace=wrap;size=20;arcSize=12;rotation=-180;" vertex="1" parent="cTSy6u-QbdNvS9XZRoj6-183">
          <mxGeometry x="3.654219783909086e-15" width="61.71428571428571" height="40" as="geometry" />
        </mxCell>
        <mxCell id="cTSy6u-QbdNvS9XZRoj6-185" value="alt" style="text;html=1;align=center;verticalAlign=middle;resizable=0;points=[];autosize=1;strokeColor=none;fillColor=none;" vertex="1" parent="cTSy6u-QbdNvS9XZRoj6-183">
          <mxGeometry x="7.203428571428575" y="5" width="40" height="30" as="geometry" />
        </mxCell>
        <mxCell id="cTSy6u-QbdNvS9XZRoj6-186" value="" style="endArrow=block;html=1;rounded=0;strokeWidth=2;endFill=1;" edge="1" parent="1">
          <mxGeometry width="50" height="50" relative="1" as="geometry">
            <mxPoint x="972" y="670" as="sourcePoint" />
            <mxPoint x="972" y="730" as="targetPoint" />
            <Array as="points">
              <mxPoint x="1032" y="670" />
              <mxPoint x="1032" y="730" />
            </Array>
          </mxGeometry>
        </mxCell>
        <mxCell id="cTSy6u-QbdNvS9XZRoj6-187" value="1.2 vergleiche mit Fallakte" style="edgeLabel;html=1;align=center;verticalAlign=middle;resizable=0;points=[];" vertex="1" connectable="0" parent="cTSy6u-QbdNvS9XZRoj6-186">
          <mxGeometry x="-0.3582" y="-3" relative="1" as="geometry">
            <mxPoint x="23" y="-18" as="offset" />
          </mxGeometry>
        </mxCell>
        <mxCell id="cTSy6u-QbdNvS9XZRoj6-188" value="" style="endArrow=none;html=1;rounded=0;strokeWidth=2;endFill=0;entryX=0.865;entryY=-0.054;entryDx=0;entryDy=0;entryPerimeter=0;startArrow=open;startFill=0;dashed=1;" edge="1" parent="1">
          <mxGeometry width="50" height="50" relative="1" as="geometry">
            <mxPoint x="694" y="1079.13" as="sourcePoint" />
            <mxPoint x="961" y="1079.13" as="targetPoint" />
          </mxGeometry>
        </mxCell>
        <mxCell id="cTSy6u-QbdNvS9XZRoj6-189" value="1.3 Niederlagenmeldung" style="edgeLabel;html=1;align=center;verticalAlign=middle;resizable=0;points=[];" vertex="1" connectable="0" parent="cTSy6u-QbdNvS9XZRoj6-188">
          <mxGeometry x="-0.3582" y="-3" relative="1" as="geometry">
            <mxPoint x="44" y="-13" as="offset" />
          </mxGeometry>
        </mxCell>
        <mxCell id="cTSy6u-QbdNvS9XZRoj6-190" value="" style="endArrow=none;html=1;rounded=0;strokeWidth=2;endFill=0;entryX=0.865;entryY=-0.054;entryDx=0;entryDy=0;entryPerimeter=0;startArrow=block;startFill=1;" edge="1" parent="1">
          <mxGeometry width="50" height="50" relative="1" as="geometry">
            <mxPoint x="694" y="1139.5700000000002" as="sourcePoint" />
            <mxPoint x="961" y="1139.5700000000002" as="targetPoint" />
          </mxGeometry>
        </mxCell>
        <mxCell id="cTSy6u-QbdNvS9XZRoj6-191" value="1.4 entziehe Zugrechte" style="edgeLabel;html=1;align=center;verticalAlign=middle;resizable=0;points=[];" vertex="1" connectable="0" parent="cTSy6u-QbdNvS9XZRoj6-190">
          <mxGeometry x="-0.3582" y="-3" relative="1" as="geometry">
            <mxPoint x="44" y="-13" as="offset" />
          </mxGeometry>
        </mxCell>
        <mxCell id="cTSy6u-QbdNvS9XZRoj6-192" value="" style="endArrow=block;html=1;rounded=0;strokeWidth=2;endFill=1;entryX=0.865;entryY=-0.054;entryDx=0;entryDy=0;entryPerimeter=0;startArrow=none;startFill=0;" edge="1" parent="1">
          <mxGeometry width="50" height="50" relative="1" as="geometry">
            <mxPoint x="-19" y="1721" as="sourcePoint" />
            <mxPoint x="248" y="1721" as="targetPoint" />
          </mxGeometry>
        </mxCell>
        <mxCell id="cTSy6u-QbdNvS9XZRoj6-193" value="3.4 teile Zugrecht ein" style="edgeLabel;html=1;align=center;verticalAlign=middle;resizable=0;points=[];" vertex="1" connectable="0" parent="cTSy6u-QbdNvS9XZRoj6-192">
          <mxGeometry x="-0.3582" y="-3" relative="1" as="geometry">
            <mxPoint x="44" y="-13" as="offset" />
          </mxGeometry>
        </mxCell>
        <mxCell id="cTSy6u-QbdNvS9XZRoj6-194" value="" style="endArrow=none;dashed=1;html=1;strokeWidth=2;rounded=0;exitX=1;exitY=0.5;exitDx=0;exitDy=0;entryX=0;entryY=0.5;entryDx=0;entryDy=0;" edge="1" source="cTSy6u-QbdNvS9XZRoj6-195" parent="1" target="cTSy6u-QbdNvS9XZRoj6-102">
          <mxGeometry width="50" height="50" relative="1" as="geometry">
            <mxPoint x="256.54999999999995" y="1663.42" as="sourcePoint" />
            <mxPoint x="256" y="1600.42" as="targetPoint" />
          </mxGeometry>
        </mxCell>
        <mxCell id="cTSy6u-QbdNvS9XZRoj6-195" value="" style="rounded=0;whiteSpace=wrap;html=1;rotation=-90;fillColor=#dae8fc;strokeColor=#6c8ebf;" vertex="1" parent="1">
          <mxGeometry x="240.21000000000004" y="1715.1" width="31.56" height="10" as="geometry" />
        </mxCell>
        <mxCell id="cTSy6u-QbdNvS9XZRoj6-196" value="" style="endArrow=block;html=1;rounded=0;strokeWidth=2;endFill=1;startArrow=none;startFill=0;" edge="1" parent="1">
          <mxGeometry width="50" height="50" relative="1" as="geometry">
            <mxPoint x="972" y="580" as="sourcePoint" />
            <mxPoint x="1242" y="580" as="targetPoint" />
          </mxGeometry>
        </mxCell>
        <mxCell id="cTSy6u-QbdNvS9XZRoj6-197" value="1.4 teile Zugrecht ein" style="edgeLabel;html=1;align=center;verticalAlign=middle;resizable=0;points=[];" vertex="1" connectable="0" parent="cTSy6u-QbdNvS9XZRoj6-196">
          <mxGeometry x="-0.3582" y="-3" relative="1" as="geometry">
            <mxPoint x="44" y="-13" as="offset" />
          </mxGeometry>
        </mxCell>
        <mxCell id="cTSy6u-QbdNvS9XZRoj6-198" value="" style="rounded=0;whiteSpace=wrap;html=1;rotation=-90;fillColor=#dae8fc;strokeColor=#6c8ebf;" vertex="1" parent="1">
          <mxGeometry x="1224.97" y="876.35" width="47.03" height="10" as="geometry" />
        </mxCell>
        <mxCell id="cTSy6u-QbdNvS9XZRoj6-199" value="" style="endArrow=none;dashed=1;html=1;strokeWidth=2;rounded=0;exitX=1;exitY=0.5;exitDx=0;exitDy=0;entryX=0;entryY=0.5;entryDx=0;entryDy=0;" edge="1" source="cTSy6u-QbdNvS9XZRoj6-198" parent="1" target="cTSy6u-QbdNvS9XZRoj6-176">
          <mxGeometry width="50" height="50" relative="1" as="geometry">
            <mxPoint x="1248.49" y="822.87" as="sourcePoint" />
            <mxPoint x="1248" y="610" as="targetPoint" />
          </mxGeometry>
        </mxCell>
        <mxCell id="cTSy6u-QbdNvS9XZRoj6-200" value="" style="endArrow=block;html=1;rounded=0;strokeWidth=2;endFill=1;startArrow=none;startFill=0;entryX=0.867;entryY=0.859;entryDx=0;entryDy=0;entryPerimeter=0;" edge="1" parent="1" target="cTSy6u-QbdNvS9XZRoj6-211">
          <mxGeometry width="50" height="50" relative="1" as="geometry">
            <mxPoint x="972" y="1176.52" as="sourcePoint" />
            <mxPoint x="1242" y="1170" as="targetPoint" />
          </mxGeometry>
        </mxCell>
        <mxCell id="cTSy6u-QbdNvS9XZRoj6-201" value="1.5 teile Zugrecht ein" style="edgeLabel;html=1;align=center;verticalAlign=middle;resizable=0;points=[];" vertex="1" connectable="0" parent="cTSy6u-QbdNvS9XZRoj6-200">
          <mxGeometry x="-0.3582" y="-3" relative="1" as="geometry">
            <mxPoint x="44" y="-13" as="offset" />
          </mxGeometry>
        </mxCell>
        <mxCell id="cTSy6u-QbdNvS9XZRoj6-203" value="" style="endArrow=none;dashed=1;html=1;strokeWidth=2;rounded=0;exitX=1;exitY=0.5;exitDx=0;exitDy=0;entryX=0;entryY=0.5;entryDx=0;entryDy=0;" edge="1" parent="1" source="cTSy6u-QbdNvS9XZRoj6-202" target="cTSy6u-QbdNvS9XZRoj6-198">
          <mxGeometry width="50" height="50" relative="1" as="geometry">
            <mxPoint x="1242" y="1198" as="sourcePoint" />
            <mxPoint x="1243" y="942" as="targetPoint" />
          </mxGeometry>
        </mxCell>
        <mxCell id="cTSy6u-QbdNvS9XZRoj6-208" value="" style="group" vertex="1" connectable="0" parent="1">
          <mxGeometry x="592" y="120" width="160" height="40" as="geometry" />
        </mxCell>
        <mxCell id="cTSy6u-QbdNvS9XZRoj6-209" value="" style="verticalLabelPosition=bottom;verticalAlign=top;html=1;shape=card;whiteSpace=wrap;size=20;arcSize=12;rotation=-180;" vertex="1" parent="cTSy6u-QbdNvS9XZRoj6-208">
          <mxGeometry width="160" height="40" as="geometry" />
        </mxCell>
        <mxCell id="cTSy6u-QbdNvS9XZRoj6-210" value="&lt;b&gt;sd &lt;/b&gt;erhebe Anklage" style="text;html=1;align=center;verticalAlign=middle;resizable=0;points=[];autosize=1;strokeColor=none;fillColor=none;" vertex="1" parent="cTSy6u-QbdNvS9XZRoj6-208">
          <mxGeometry x="14.99944444444445" y="5" width="120" height="30" as="geometry" />
        </mxCell>
      </root>
    </mxGraphModel>
  </diagram>
</mxfile>
